<?xml version="1.0" encoding="UTF-8"?>
<svg xmlns="http://www.w3.org/2000/svg" xmlns:xlink="http://www.w3.org/1999/xlink" width="600pt" height="600pt" viewBox="0 0 600 600" version="1.1">
<g id="surface1">
<path style="fill-rule:nonzero;fill:rgb(26.728861%,68.111277%,30.819836%);fill-opacity:0.34407;stroke-width:0.0119461;stroke-linecap:butt;stroke-linejoin:round;stroke:rgb(100%,100%,100%);stroke-opacity:1;stroke-miterlimit:10;" d="M -0.575391 0.413359 L 0.411 0.464719 L -0.575391 -0.536609 Z M -0.575391 0.413359 " transform="matrix(250,0,0,250,300,300)"/>
<path style="fill:none;stroke-width:0.00716768;stroke-linecap:butt;stroke-linejoin:round;stroke:rgb(0%,0%,0%);stroke-opacity:1;stroke-miterlimit:10;" d="M -0.575391 0.413359 L 0.411 0.464719 L -0.575391 -0.536609 Z M -0.575391 0.413359 " transform="matrix(250,0,0,250,300,300)"/>
<path style="fill-rule:nonzero;fill:rgb(0.741032%,44.526001%,49.370426%);fill-opacity:0.781357;stroke-width:0.0119461;stroke-linecap:butt;stroke-linejoin:round;stroke:rgb(100%,100%,100%);stroke-opacity:1;stroke-miterlimit:10;" d="M -0.575391 0.413359 L -0.739797 0.721469 L 0.411 0.464719 Z M -0.575391 0.413359 " transform="matrix(250,0,0,250,300,300)"/>
<path style="fill:none;stroke-width:0.00716768;stroke-linecap:butt;stroke-linejoin:round;stroke:rgb(0%,0%,0%);stroke-opacity:1;stroke-miterlimit:10;" d="M -0.575391 0.413359 L -0.739797 0.721469 L 0.411 0.464719 Z M -0.575391 0.413359 " transform="matrix(250,0,0,250,300,300)"/>
<path style="fill-rule:nonzero;fill:rgb(12.717193%,33.502492%,44.685213%);fill-opacity:0.890678;stroke-width:0.0119461;stroke-linecap:butt;stroke-linejoin:round;stroke:rgb(100%,100%,100%);stroke-opacity:1;stroke-miterlimit:10;" d="M -0.575391 0.413359 L -0.739797 0.721469 L -0.575391 -0.536609 Z M -0.575391 0.413359 " transform="matrix(250,0,0,250,300,300)"/>
<path style="fill:none;stroke-width:0.00716768;stroke-linecap:butt;stroke-linejoin:round;stroke:rgb(0%,0%,0%);stroke-opacity:1;stroke-miterlimit:10;" d="M -0.575391 0.413359 L -0.739797 0.721469 L -0.575391 -0.536609 Z M -0.575391 0.413359 " transform="matrix(250,0,0,250,300,300)"/>
<path style="fill-rule:nonzero;fill:rgb(12.722234%,64.34508%,28.20768%);fill-opacity:0.431948;stroke-width:0.0124092;stroke-linecap:butt;stroke-linejoin:round;stroke:rgb(100%,100%,100%);stroke-opacity:1;stroke-miterlimit:10;" d="M 0.411 0.464719 L -0.575391 -0.536609 L -0.739797 0.721469 Z M 0.411 0.464719 " transform="matrix(250,0,0,250,300,300)"/>
<path style="fill:none;stroke-width:0.00744549;stroke-linecap:butt;stroke-linejoin:round;stroke:rgb(0%,0%,0%);stroke-opacity:1;stroke-miterlimit:10;" d="M 0.411 0.464719 L -0.575391 -0.536609 L -0.739797 0.721469 Z M 0.411 0.464719 " transform="matrix(250,0,0,250,300,300)"/>
<path style="fill-rule:nonzero;fill:rgb(26.728861%,68.111277%,30.819836%);fill-opacity:0.34407;stroke-width:0.0141662;stroke-linecap:butt;stroke-linejoin:round;stroke:rgb(100%,100%,100%);stroke-opacity:1;stroke-miterlimit:10;" d="M 0.805562 -0.844703 L -0.180844 -0.896047 L 0.805562 0.105266 Z M 0.805562 -0.844703 " transform="matrix(250,0,0,250,300,300)"/>
<path style="fill:none;stroke-width:0.00849972;stroke-linecap:butt;stroke-linejoin:round;stroke:rgb(0%,0%,0%);stroke-opacity:1;stroke-miterlimit:10;" d="M 0.805562 -0.844703 L -0.180844 -0.896047 L 0.805562 0.105266 Z M 0.805562 -0.844703 " transform="matrix(250,0,0,250,300,300)"/>
<path style="fill-rule:nonzero;fill:rgb(4.378018%,40.825923%,48.115027%);fill-opacity:0.810649;stroke-width:0.0130145;stroke-linecap:butt;stroke-linejoin:round;stroke:rgb(100%,100%,100%);stroke-opacity:1;stroke-miterlimit:10;" d="M 0.805562 0.105266 L -0.180844 -0.896047 L 0.641156 -0.536609 Z M 0.805562 0.105266 " transform="matrix(250,0,0,250,300,300)"/>
<path style="fill:none;stroke-width:0.00780869;stroke-linecap:butt;stroke-linejoin:round;stroke:rgb(0%,0%,0%);stroke-opacity:1;stroke-miterlimit:10;" d="M 0.805562 0.105266 L -0.180844 -0.896047 L 0.641156 -0.536609 Z M 0.805562 0.105266 " transform="matrix(250,0,0,250,300,300)"/>
<path style="fill-rule:nonzero;fill:rgb(12.717193%,33.502492%,44.685213%);fill-opacity:0.890678;stroke-width:0.0141662;stroke-linecap:butt;stroke-linejoin:round;stroke:rgb(100%,100%,100%);stroke-opacity:1;stroke-miterlimit:10;" d="M 0.805562 -0.844703 L 0.805562 0.105266 L 0.641156 -0.536609 Z M 0.805562 -0.844703 " transform="matrix(250,0,0,250,300,300)"/>
<path style="fill:none;stroke-width:0.00849972;stroke-linecap:butt;stroke-linejoin:round;stroke:rgb(0%,0%,0%);stroke-opacity:1;stroke-miterlimit:10;" d="M 0.805562 -0.844703 L 0.805562 0.105266 L 0.641156 -0.536609 Z M 0.805562 -0.844703 " transform="matrix(250,0,0,250,300,300)"/>
<path style="fill-rule:nonzero;fill:rgb(25.884814%,64.34508%,37.421845%);fill-opacity:0.431948;stroke-width:0.0168503;stroke-linecap:butt;stroke-linejoin:round;stroke:rgb(100%,100%,100%);stroke-opacity:1;stroke-miterlimit:10;" d="M -0.575391 0.603359 L -0.411 -0.654703 L 0.575391 0.346609 Z M -0.575391 0.603359 " transform="matrix(250,0,0,250,300,300)"/>
<path style="fill:none;stroke-width:0.0101102;stroke-linecap:butt;stroke-linejoin:round;stroke:rgb(0%,0%,0%);stroke-opacity:1;stroke-miterlimit:10;" d="M -0.575391 0.603359 L -0.411 -0.654703 L 0.575391 0.346609 Z M -0.575391 0.603359 " transform="matrix(250,0,0,250,300,300)"/>
<path style="fill-rule:nonzero;fill:rgb(24.490998%,44.177903%,48.115027%);fill-opacity:0.810649;stroke-width:0.0200098;stroke-linecap:butt;stroke-linejoin:round;stroke:rgb(100%,100%,100%);stroke-opacity:1;stroke-miterlimit:10;" d="M 0.411 -0.295266 L -0.411 -0.654703 L 0.575391 0.346609 Z M 0.411 -0.295266 " transform="matrix(250,0,0,250,300,300)"/>
<path style="fill:none;stroke-width:0.0120059;stroke-linecap:butt;stroke-linejoin:round;stroke:rgb(0%,0%,0%);stroke-opacity:1;stroke-miterlimit:10;" d="M 0.411 -0.295266 L -0.411 -0.654703 L 0.575391 0.346609 Z M 0.411 -0.295266 " transform="matrix(250,0,0,250,300,300)"/>
<path style="fill-rule:nonzero;fill:rgb(3.918174%,53.525045%,47.461231%);fill-opacity:0.684416;stroke-width:0.0168503;stroke-linecap:butt;stroke-linejoin:round;stroke:rgb(100%,100%,100%);stroke-opacity:1;stroke-miterlimit:10;" d="M -0.575391 0.603359 L 0.411 -0.295266 L 0.575391 0.346609 Z M -0.575391 0.603359 " transform="matrix(250,0,0,250,300,300)"/>
<path style="fill:none;stroke-width:0.0101102;stroke-linecap:butt;stroke-linejoin:round;stroke:rgb(0%,0%,0%);stroke-opacity:1;stroke-miterlimit:10;" d="M -0.575391 0.603359 L 0.411 -0.295266 L 0.575391 0.346609 Z M -0.575391 0.603359 " transform="matrix(250,0,0,250,300,300)"/>
<path style="fill-rule:nonzero;fill:rgb(28.881224%,47.329306%,49.370426%);fill-opacity:0.781357;stroke-width:0.0141662;stroke-linecap:butt;stroke-linejoin:round;stroke:rgb(100%,100%,100%);stroke-opacity:1;stroke-miterlimit:10;" d="M 0.805562 -0.844703 L 0.641156 -0.536609 L -0.180844 -0.896047 Z M 0.805562 -0.844703 " transform="matrix(250,0,0,250,300,300)"/>
<path style="fill:none;stroke-width:0.00849972;stroke-linecap:butt;stroke-linejoin:round;stroke:rgb(0%,0%,0%);stroke-opacity:1;stroke-miterlimit:10;" d="M 0.805562 -0.844703 L 0.641156 -0.536609 L -0.180844 -0.896047 Z M 0.805562 -0.844703 " transform="matrix(250,0,0,250,300,300)"/>
<path style="fill-rule:nonzero;fill:rgb(10.604233%,58.935062%,39.064696%);fill-opacity:0.558182;stroke-width:0.0200098;stroke-linecap:butt;stroke-linejoin:round;stroke:rgb(100%,100%,100%);stroke-opacity:1;stroke-miterlimit:10;" d="M 0.411 -0.295266 L -0.411 -0.654703 L -0.575391 0.603359 Z M 0.411 -0.295266 " transform="matrix(250,0,0,250,300,300)"/>
<path style="fill:none;stroke-width:0.0120059;stroke-linecap:butt;stroke-linejoin:round;stroke:rgb(0%,0%,0%);stroke-opacity:1;stroke-miterlimit:10;" d="M 0.411 -0.295266 L -0.411 -0.654703 L -0.575391 0.603359 Z M 0.411 -0.295266 " transform="matrix(250,0,0,250,300,300)"/>
<path style="fill-rule:nonzero;fill:rgb(0.741032%,44.526001%,49.370426%);fill-opacity:0.781357;stroke-width:0.0188327;stroke-linecap:butt;stroke-linejoin:round;stroke:rgb(100%,100%,100%);stroke-opacity:1;stroke-miterlimit:10;" d="M 0.575391 0.916594 L 0.739797 0.6085 L -0.411 0.865234 Z M 0.575391 0.916594 " transform="matrix(250,0,0,250,300,300)"/>
<path style="fill:none;stroke-width:0.0112996;stroke-linecap:butt;stroke-linejoin:round;stroke:rgb(0%,0%,0%);stroke-opacity:1;stroke-miterlimit:10;" d="M 0.575391 0.916594 L 0.739797 0.6085 L -0.411 0.865234 Z M 0.575391 0.916594 " transform="matrix(250,0,0,250,300,300)"/>
<path style="fill-rule:nonzero;fill:rgb(28.196853%,53.525045%,50.428993%);fill-opacity:0.684416;stroke-width:0.0139198;stroke-linecap:butt;stroke-linejoin:round;stroke:rgb(100%,100%,100%);stroke-opacity:1;stroke-miterlimit:10;" d="M 0.739797 0.6085 L 0.575391 -0.033375 L -0.411 0.865234 Z M 0.739797 0.6085 " transform="matrix(250,0,0,250,300,300)"/>
<path style="fill:none;stroke-width:0.0083519;stroke-linecap:butt;stroke-linejoin:round;stroke:rgb(0%,0%,0%);stroke-opacity:1;stroke-miterlimit:10;" d="M 0.739797 0.6085 L 0.575391 -0.033375 L -0.411 0.865234 Z M 0.739797 0.6085 " transform="matrix(250,0,0,250,300,300)"/>
<path style="fill-rule:nonzero;fill:rgb(12.717193%,33.502492%,44.685213%);fill-opacity:0.890678;stroke-width:0.0188327;stroke-linecap:butt;stroke-linejoin:round;stroke:rgb(100%,100%,100%);stroke-opacity:1;stroke-miterlimit:10;" d="M 0.575391 0.916594 L 0.575391 -0.033375 L 0.739797 0.6085 Z M 0.575391 0.916594 " transform="matrix(250,0,0,250,300,300)"/>
<path style="fill:none;stroke-width:0.0112996;stroke-linecap:butt;stroke-linejoin:round;stroke:rgb(0%,0%,0%);stroke-opacity:1;stroke-miterlimit:10;" d="M 0.575391 0.916594 L 0.575391 -0.033375 L 0.739797 0.6085 Z M 0.575391 0.916594 " transform="matrix(250,0,0,250,300,300)"/>
<path style="fill-rule:nonzero;fill:rgb(14.093934%,33.984089%,44.685213%);fill-opacity:0.890678;stroke-width:0.0205228;stroke-linecap:butt;stroke-linejoin:round;stroke:rgb(100%,100%,100%);stroke-opacity:1;stroke-miterlimit:10;" d="M -0.805562 -0.48525 L -0.805562 0.464719 L -0.641156 -0.793359 Z M -0.805562 -0.48525 " transform="matrix(250,0,0,250,300,300)"/>
<path style="fill:none;stroke-width:0.0123137;stroke-linecap:butt;stroke-linejoin:round;stroke:rgb(0%,0%,0%);stroke-opacity:1;stroke-miterlimit:10;" d="M -0.805562 -0.48525 L -0.805562 0.464719 L -0.641156 -0.793359 Z M -0.805562 -0.48525 " transform="matrix(250,0,0,250,300,300)"/>
<path style="fill-rule:nonzero;fill:rgb(24.756804%,58.935062%,44.883275%);fill-opacity:0.558182;stroke-width:0.0181907;stroke-linecap:butt;stroke-linejoin:round;stroke:rgb(100%,100%,100%);stroke-opacity:1;stroke-miterlimit:10;" d="M -0.805562 0.464719 L -0.641156 -0.793359 L 0.180844 -0.433906 Z M -0.805562 0.464719 " transform="matrix(250,0,0,250,300,300)"/>
<path style="fill:none;stroke-width:0.0109144;stroke-linecap:butt;stroke-linejoin:round;stroke:rgb(0%,0%,0%);stroke-opacity:1;stroke-miterlimit:10;" d="M -0.805562 0.464719 L -0.641156 -0.793359 L 0.180844 -0.433906 Z M -0.805562 0.464719 " transform="matrix(250,0,0,250,300,300)"/>
<path style="fill-rule:nonzero;fill:rgb(28.881224%,47.329306%,49.370426%);fill-opacity:0.781357;stroke-width:0.0205228;stroke-linecap:butt;stroke-linejoin:round;stroke:rgb(100%,100%,100%);stroke-opacity:1;stroke-miterlimit:10;" d="M -0.805562 -0.48525 L -0.641156 -0.793359 L 0.180844 -0.433906 Z M -0.805562 -0.48525 " transform="matrix(250,0,0,250,300,300)"/>
<path style="fill:none;stroke-width:0.0123137;stroke-linecap:butt;stroke-linejoin:round;stroke:rgb(0%,0%,0%);stroke-opacity:1;stroke-miterlimit:10;" d="M -0.805562 -0.48525 L -0.641156 -0.793359 L 0.180844 -0.433906 Z M -0.805562 -0.48525 " transform="matrix(250,0,0,250,300,300)"/>
<path style="fill-rule:nonzero;fill:rgb(14.137905%,68.111277%,19.473594%);fill-opacity:0.34407;stroke-width:0.0188327;stroke-linecap:butt;stroke-linejoin:round;stroke:rgb(100%,100%,100%);stroke-opacity:1;stroke-miterlimit:10;" d="M 0.575391 0.916594 L -0.411 0.865234 L 0.575391 -0.033375 Z M 0.575391 0.916594 " transform="matrix(250,0,0,250,300,300)"/>
<path style="fill:none;stroke-width:0.0112996;stroke-linecap:butt;stroke-linejoin:round;stroke:rgb(0%,0%,0%);stroke-opacity:1;stroke-miterlimit:10;" d="M 0.575391 0.916594 L -0.411 0.865234 L 0.575391 -0.033375 Z M 0.575391 0.916594 " transform="matrix(250,0,0,250,300,300)"/>
<path style="fill-rule:nonzero;fill:rgb(14.137905%,68.111277%,19.473594%);fill-opacity:0.34407;stroke-width:0.0205228;stroke-linecap:butt;stroke-linejoin:round;stroke:rgb(100%,100%,100%);stroke-opacity:1;stroke-miterlimit:10;" d="M -0.805562 -0.48525 L 0.180844 -0.433906 L -0.805562 0.464719 Z M -0.805562 -0.48525 " transform="matrix(250,0,0,250,300,300)"/>
<path style="fill:none;stroke-width:0.0123137;stroke-linecap:butt;stroke-linejoin:round;stroke:rgb(0%,0%,0%);stroke-opacity:1;stroke-miterlimit:10;" d="M -0.805562 -0.48525 L 0.180844 -0.433906 L -0.805562 0.464719 Z M -0.805562 -0.48525 " transform="matrix(250,0,0,250,300,300)"/>
</g>
</svg>
